<svg width="36" height="38" viewBox="0 0 36 38" fill="none" xmlns="http://www.w3.org/2000/svg">
<g clip-path="url(#clip0)">
<path d="M2.35391 17.3411C4.50044 21.6915 7.28402 25.6478 10.6273 29.1002C13.9707 32.5527 17.8021 35.4272 22.0149 37.6438C22.7627 38.0372 23.6143 38.1068 24.4128 37.8393C25.2124 37.5716 25.8629 36.9983 26.2444 36.2251C26.7375 35.2256 26.6791 34.0834 26.1867 33.1699L27.2888 30.0022C27.289 30.0016 27.2894 30.0011 27.2896 30.0005L27.7835 28.5807L32.6104 14.7073C32.6105 14.707 32.6106 14.7067 32.6108 14.7064L33.1479 13.1623L35.6917 5.85094C35.9938 5.0757 35.83 4.22438 35.2629 3.62646C34.6938 3.02402 33.8618 2.84397 33.1164 3.13702L23.6558 6.63405C23.3972 6.72961 23.2627 7.0232 23.3555 7.28973C23.4483 7.55626 23.7331 7.69461 23.9918 7.59919L33.4568 4.10045C33.8471 3.94336 34.2583 4.0336 34.5513 4.34319C34.8441 4.65175 34.9243 5.07475 34.7661 5.47477C34.7634 5.48154 34.7609 5.48838 34.7585 5.49528L33.9464 7.82948C33.2054 7.14926 32.2391 6.759 31.2304 6.759C28.981 6.759 27.1509 8.64492 27.1509 10.963C27.1509 13.2811 28.981 15.167 31.2304 15.167C31.2853 15.167 31.34 15.1655 31.3948 15.1632L28.689 22.9398C27.9693 22.3379 27.0693 22.0027 26.1228 22.0027C23.8734 22.0027 22.0433 23.8886 22.0433 26.2067C22.0433 28.5135 23.8557 30.3915 26.09 30.4099L25.4486 32.2533C23.9122 31.2441 22.209 30.4453 20.7328 29.3437C20.5053 29.1852 20.1959 29.2465 20.042 29.4811C19.888 29.7156 19.9477 30.0344 20.1752 30.193C21.526 31.1346 22.9535 32.0029 24.418 32.7734C25.4743 33.3293 25.8958 34.6693 25.3574 35.7605C25.0965 36.2893 24.6518 36.6813 24.1053 36.8643C23.5598 37.0468 22.9781 36.9994 22.4672 36.7307C18.3476 34.5631 14.601 31.7522 11.3315 28.3759C8.06204 24.9997 5.33994 21.1307 3.24078 16.8764C2.70236 15.7851 3.12377 14.4452 4.18019 13.8893C5.22207 13.3237 6.55947 13.7874 7.07036 14.8595C9.79053 20.3723 13.5576 25.0545 18.2671 28.7758C18.4851 28.948 18.7974 28.9056 18.9646 28.6809C19.1318 28.4562 19.0906 28.1344 18.8725 27.962C13.9729 24.2191 10.4293 19.207 7.49363 13.6975L21.8062 8.40697C22.0649 8.3114 22.1993 8.01781 22.1065 7.75128C22.0141 7.48216 21.7221 7.34667 21.4703 7.44183L6.54939 12.9572C5.66239 12.5029 4.6195 12.5064 3.72766 12.976C2.1835 13.7886 1.56721 15.7467 2.35391 17.3411ZM31.2304 14.1416C29.5296 14.1416 28.1459 12.7157 28.1459 10.963C28.1459 9.21023 29.5296 7.78436 31.2304 7.78436C32.1327 7.78436 32.9914 8.19608 33.5746 8.89729L32.2195 12.7926L31.7668 14.0938C31.591 14.1256 31.4114 14.1416 31.2304 14.1416ZM26.1228 29.3853C24.422 29.3853 23.0383 27.9594 23.0383 26.2067C23.0383 24.4539 24.422 23.0281 26.1228 23.0281C26.9586 23.0281 27.7473 23.3727 28.326 23.9822L26.9972 27.8023L26.4527 29.3674C26.3439 29.3793 26.2336 29.3853 26.1228 29.3853Z" fill="#284B63"/>
<path d="M23.3227 15.2695C23.5952 15.2786 23.8259 15.0536 23.8332 14.7706C23.8994 12.4134 22.0439 10.4471 19.7552 10.451C17.5058 10.451 15.6758 12.3369 15.6758 14.6549C15.6758 16.973 17.5058 18.8589 19.7552 18.8589C20.9799 18.8589 22.1288 18.2993 22.9074 17.3237C23.082 17.105 23.0514 16.7819 22.8392 16.602C22.6269 16.422 22.3134 16.4536 22.1389 16.6724C21.5501 17.4103 20.6812 17.8335 19.7552 17.8335C18.0545 17.8335 16.6708 16.4076 16.6708 14.6549C16.6708 12.9021 18.0545 11.4763 19.7552 11.4763C21.486 11.4733 22.8893 12.9608 22.8385 14.7433C22.8312 15.0265 23.048 15.262 23.3227 15.2695Z" fill="#284B63"/>
<path d="M20.1573 20.7489C20.1096 20.7489 20.0614 20.756 20.014 20.7706C19.9389 20.794 18.1672 21.3579 17.6841 22.7911C17.2032 24.2177 18.2316 25.8323 18.2756 25.9003C18.3971 26.0879 18.6233 26.1715 18.8328 26.1068C18.908 26.0835 20.6797 25.5196 21.1628 24.0863C21.6437 22.6597 20.6152 21.0452 20.5712 20.9772C20.4772 20.832 20.3205 20.7489 20.1573 20.7489ZM20.2229 23.75C20.0237 24.341 19.3756 24.7597 18.9108 24.9786C18.679 24.4942 18.4223 23.7258 18.6239 23.1276C18.8231 22.5367 19.4713 22.1179 19.936 21.899C20.1678 22.3833 20.4245 23.1519 20.2229 23.75Z" fill="#284B63"/>
<path d="M13.9886 19.5233C13.7305 19.4259 13.4448 19.5626 13.3504 19.8286C13.2559 20.0945 13.3885 20.3889 13.6466 20.4862C14.4389 20.7851 15.2334 20.7709 15.267 20.7704C15.4858 20.7655 15.6759 20.6138 15.7352 20.3967C15.7563 20.3194 16.2422 18.4888 15.3339 17.3071C14.4573 16.1887 12.8094 16.1629 12.4899 16.1603C12.2711 16.1651 12.081 16.3168 12.0217 16.5339C12.013 16.5658 11.8097 17.3234 11.8911 18.163C11.9185 18.4447 12.1624 18.6505 12.4356 18.6222C12.7091 18.594 12.9085 18.3427 12.8812 18.061C12.8506 17.7451 12.8737 17.4383 12.9052 17.2077C13.4213 17.2662 14.1774 17.4541 14.5539 17.9439C14.9258 18.4278 14.9221 19.2049 14.8531 19.7217C14.6145 19.6952 14.2972 19.6397 13.9886 19.5233Z" fill="#284B63"/>
<path d="M27.331 20.1039C27.5418 20.1647 27.7663 20.0763 27.8842 19.8862C27.926 19.8187 28.9025 18.2176 28.3676 16.8202C27.8352 15.4292 26.0527 14.9013 25.9771 14.8795C25.7701 14.8188 25.5416 14.906 25.4239 15.0972C25.3821 15.1647 24.4056 16.7658 24.9405 18.1632C25.4729 19.5542 27.2554 20.0821 27.331 20.1039ZM26.0778 16.0076C26.5135 16.1984 27.2087 16.5871 27.442 17.1965C27.6602 17.7667 27.4402 18.5041 27.2302 18.9758C26.7945 18.7851 26.0993 18.3964 25.866 17.787C25.6478 17.2168 25.8679 16.4794 26.0778 16.0076Z" fill="#284B63"/>
</g>
<defs>
<clipPath id="clip0">
<rect width="33.9633" height="35" fill="white" transform="translate(35.9082 38) rotate(-180)"/>
</clipPath>
</defs>
</svg>
