<svg width="37" height="38" viewBox="0 0 37 38" fill="none" xmlns="http://www.w3.org/2000/svg">
<path d="M12.1025 24.6506C18.025 24.6506 22.8261 21.8207 22.8261 18.3299C22.8261 14.839 18.025 12.0091 12.1025 12.0091C6.18001 12.0091 1.37891 14.839 1.37891 18.3299C1.37891 21.8207 6.18001 24.6506 12.1025 24.6506Z" stroke="#284B63" stroke-width="2" stroke-miterlimit="10" stroke-linecap="round" stroke-linejoin="round"/>
<path d="M14.4853 15.8015H9.71924V20.8581H14.4853V15.8015Z" stroke="#284B63" stroke-width="2" stroke-miterlimit="10" stroke-linecap="round" stroke-linejoin="round"/>
<path d="M1.37891 18.3298V29.7072C1.37891 33.2468 6.14494 36.028 12.1025 36.028C18.06 36.028 22.8261 33.2468 22.8261 29.7072V18.3298" stroke="#284B63" stroke-width="2" stroke-miterlimit="10" stroke-linecap="round" stroke-linejoin="round"/>
<path d="M24.0175 6.95259H19.2515V12.0092H24.0175V6.95259Z" stroke="#284B63" stroke-width="2" stroke-miterlimit="10" stroke-linecap="round" stroke-linejoin="round"/>
<path d="M22.8262 27.1788C28.188 26.7996 32.3582 24.1448 32.3582 20.858V9.48065" stroke="#284B63" stroke-width="2" stroke-miterlimit="10" stroke-linecap="round" stroke-linejoin="round"/>
<path d="M11.8643 12.0091C11.2686 11.2506 10.9111 10.3657 10.9111 9.48077C10.9111 5.94113 15.6772 3.15999 21.6347 3.15999C27.5923 3.15999 32.3583 5.94113 32.3583 9.48077C32.3583 12.894 27.7114 15.6751 21.9922 15.8015" stroke="#284B63" stroke-width="2" stroke-miterlimit="10" stroke-linecap="round" stroke-linejoin="round"/>
</svg>
