<svg width="37" height="38" viewBox="0 0 37 38" fill="none" xmlns="http://www.w3.org/2000/svg">
<path d="M24.4733 10.2225L25.5045 28.7481C25.6364 31.1184 23.4899 33.0399 20.7138 33.0399H8.54689C5.76916 33.0399 3.62455 31.1142 3.75624 28.7481L4.77728 11.6046" stroke="#284B63" stroke-width="2" stroke-linecap="round" stroke-linejoin="round"/>
<path d="M23.9917 14.086C23.9917 14.086 27.4057 12.016 29.0974 13.947C30.7892 15.878 29.6743 21.3122 28.6996 21.9713C27.7249 22.6304 24.8541 22.6304 24.8541 22.6304" stroke="#284B63" stroke-width="2" stroke-linecap="round" stroke-linejoin="round"/>
<path d="M19.1597 15.112L20.4297 29.2371" stroke="#284B63" stroke-width="2" stroke-linecap="square" stroke-linejoin="round"/>
<path d="M10.269 15.112L8.99897 29.2371" stroke="#284B63" stroke-width="2" stroke-linecap="square" stroke-linejoin="round"/>
<path d="M14.7144 15.6552V28.6938" stroke="#284B63" stroke-width="2" stroke-linecap="square" stroke-linejoin="round"/>
<path fill-rule="evenodd" clip-rule="evenodd" d="M7.67633 10.4373C8.0359 11.2637 8.96641 11.8523 10.0576 11.8523C10.9781 11.8523 11.7842 11.4335 12.2298 10.8064C12.693 11.2274 13.3504 11.4902 14.0795 11.4902C14.4991 11.4902 14.8949 11.4031 15.2437 11.249C16.1306 12.2742 17.5544 12.9389 19.1597 12.9389C21.3979 12.9389 23.2834 11.6468 23.8525 9.88686C25.186 9.4976 26.145 8.4166 26.145 7.14398C26.145 5.54375 24.6287 4.24652 22.7582 4.24652C21.9942 4.24652 21.2894 4.46292 20.7227 4.82798C20.2321 4.6858 19.7064 4.6087 19.1597 4.6087C18.1954 4.6087 17.2967 4.84853 16.5404 5.26226C15.9439 4.4354 14.8753 3.88434 13.6561 3.88434C12.4386 3.88434 11.3711 4.434 10.7742 5.2591C10.369 4.04711 9.06434 3.15997 7.51752 3.15997C5.64703 3.15997 4.1307 4.45721 4.1307 6.05743C4.1307 6.07439 4.13087 6.09131 4.13121 6.1082C2.564 6.36231 1.37891 7.5402 1.37891 8.95489C1.37891 10.5551 2.89524 11.8523 4.76573 11.8523C6.00302 11.8523 7.08534 11.2847 7.67633 10.4373Z" fill="#D8D8D8" stroke="#284B63" stroke-width="2" stroke-linecap="round" stroke-linejoin="round"/>
</svg>
