<svg width="36" height="38" viewBox="0 0 36 38" fill="none" xmlns="http://www.w3.org/2000/svg">
<g clip-path="url(#clip0)">
<path d="M31.7261 14.2123C31.0684 14.2201 30.4212 14.3849 29.8337 14.6939C29.9811 13.9373 30.056 13.1673 30.0571 12.3952C30.0571 12.2501 30.002 12.1108 29.9037 12.0082C29.8055 11.9056 29.6723 11.8479 29.5334 11.8479H8.58416C8.44525 11.8479 8.31204 11.9056 8.21382 12.0082C8.1156 12.1108 8.06042 12.2501 8.06042 12.3952C8.05076 15.1537 8.99992 17.8221 10.7315 19.9043C9.62185 20.1142 8.57896 20.6069 7.69522 21.3389C6.81149 22.0708 6.11422 23.0193 5.66523 24.1003C5.03673 24.4699 4.49263 24.9778 4.07061 25.5889C3.64859 26.2 3.35874 26.8997 3.22115 27.6395C3.20962 27.7234 3.21686 27.8088 3.24231 27.8892C3.26775 27.9697 3.31071 28.0428 3.36779 28.1029L6.03184 30.8869C6.1117 30.9708 6.21542 31.0254 6.32747 31.0425C6.43952 31.0596 6.55385 31.0383 6.65333 30.9817L10.1065 29.026L13.591 28.2671H18.1859L21.6286 29.0187L25.0957 30.9854C25.1951 31.0419 25.3095 31.0632 25.4215 31.0461C25.5336 31.029 25.6373 30.9744 25.7171 30.8905L28.3812 28.1066C28.4383 28.0464 28.4812 27.9733 28.5067 27.8929C28.5321 27.8125 28.5394 27.727 28.5278 27.6432C28.3914 26.9105 28.1056 26.2172 27.6899 25.6103C27.2742 25.0033 26.7383 24.497 26.1187 24.1258C25.8127 23.3979 25.3978 22.7254 24.8897 22.1336C25.2037 21.9308 25.5079 21.7116 25.8009 21.4769L25.972 21.3346C27.0195 20.5136 28.1717 20.7654 29.4985 21.0609C30.2224 21.2486 30.9632 21.3563 31.7086 21.382C32.6161 21.382 33.4864 21.0053 34.1281 20.3347C34.7698 19.6641 35.1303 18.7546 35.1303 17.8062C35.1303 16.8579 34.7698 15.9484 34.1281 15.2778C33.4864 14.6072 32.6161 14.2305 31.7086 14.2305L31.7261 14.2123ZM29.0097 12.9425C28.953 14.1041 28.7099 15.2475 28.2904 16.3249C27.4669 18.4348 25.9938 20.1976 24.1041 21.3346C23.0127 20.4476 21.7024 19.9035 20.3262 19.7656C19.8278 19.0065 19.1633 18.3828 18.3878 17.9462C17.6123 17.5095 16.7482 17.2727 15.8675 17.2553C15.065 17.2571 14.2735 17.4499 13.5529 17.8191C12.8324 18.1883 12.2018 18.7242 11.7091 19.3861C10.1487 17.6215 9.22844 15.3419 9.10789 12.9425H29.0097ZM17.8367 27.1725H13.9507L12.3271 20.3822C12.71 19.7646 13.2343 19.2566 13.8525 18.9043C14.4707 18.552 15.1633 18.3664 15.8675 18.3645C16.5755 18.386 17.2688 18.5803 17.8921 18.9319C18.5154 19.2836 19.0512 19.7827 19.4568 20.3895L17.8367 27.1725ZM11.3669 20.8931L12.8997 27.2965L10.1798 27.9022L6.73364 24.2937C7.40052 22.878 8.7308 21.2908 11.3669 20.8931ZM6.47876 29.8251L4.31051 27.5374C4.57897 26.5304 5.20283 25.6672 6.05628 25.1219L9.10789 28.3401L6.47876 29.8251ZM27.428 27.541L25.2423 29.8251L22.6306 28.3474L25.7032 25.1365C26.5526 25.678 27.174 26.536 27.442 27.5374L27.428 27.541ZM21.6006 27.9022L18.8842 27.3002L20.417 20.8967C23.0531 21.2944 24.3834 22.878 25.0468 24.2937L21.6006 27.9022ZM31.7261 20.2801C31.0536 20.2529 30.3856 20.1539 29.7324 19.9845C29.0275 19.799 28.3049 19.6962 27.5781 19.678C28.2701 18.7977 28.8315 17.8137 29.2436 16.7591C29.5928 15.9491 30.6682 15.2996 31.7296 15.2996C32.3593 15.2996 32.9632 15.561 33.4084 16.0263C33.8537 16.4916 34.1038 17.1227 34.1038 17.7807C34.1038 18.4387 33.8537 19.0698 33.4084 19.5351C32.9632 20.0004 32.3593 20.2618 31.7296 20.2618L31.7261 20.2801Z" fill="#284B63"/>
<path d="M18.1157 4.05794C17.3615 4.70011 16.4258 5.51743 16.4258 7.21043C16.4397 9.50547 18.5347 10.5271 19.659 10.7533H19.7567C19.8956 10.7669 20.034 10.7222 20.1414 10.6292C20.2488 10.5361 20.3164 10.4023 20.3293 10.2571C20.3423 10.112 20.2995 9.96736 20.2105 9.85514C20.1214 9.74292 19.9934 9.67227 19.8545 9.65872C19.7567 9.65872 17.4872 9.16979 17.4872 7.21043C17.4872 6.01 18.0773 5.50283 18.7756 4.91539C19.4006 4.38268 20.1094 3.77699 20.1094 2.67508C20.1222 2.36 20.0723 2.04557 19.9629 1.75166C19.8536 1.45774 19.687 1.19072 19.4739 0.96748C18.9503 0.484681 18.2727 0.224331 17.5745 0.237737C17.4356 0.240156 17.3033 0.300139 17.2067 0.404489C17.1101 0.50884 17.0572 0.649011 17.0595 0.794166C17.0618 0.939321 17.1192 1.07757 17.2191 1.1785C17.3189 1.27943 17.4531 1.33477 17.592 1.33235C18.0084 1.3311 18.4127 1.47922 18.7372 1.75195C18.8474 1.8743 18.9322 2.01914 18.9863 2.17737C19.0403 2.3356 19.0625 2.50381 19.0514 2.67143C19.0619 3.22239 18.7197 3.54347 18.1157 4.05794Z" fill="#284B63"/>
</g>
<defs>
<clipPath id="clip0">
<rect width="35.2646" height="36.852" fill="white" transform="translate(0.378906 0.171997)"/>
</clipPath>
</defs>
</svg>
