<svg width="36" height="38" viewBox="0 0 36 38" fill="none" xmlns="http://www.w3.org/2000/svg">
<g clip-path="url(#clip0)">
<path d="M29.9478 4.21674C29.9246 3.89997 29.6566 3.66249 29.3492 3.68648C29.0419 3.71041 28.8114 3.98658 28.8346 4.30336C28.9537 5.92798 28.785 8.29759 27.3051 10.3604C25.8231 12.4262 23.7212 13.1448 22.5919 13.531C20.9196 14.1027 19.3845 14.2516 17.9606 14.2131C18.0854 13.9357 18.1555 13.6269 18.1555 13.3014C18.1555 12.2881 17.4799 11.4344 16.5685 11.1935V10.4435H19.5488C20.6773 10.4435 21.5954 9.49737 21.5954 8.33444V7.72091C21.5954 7.40318 21.3455 7.14574 21.0373 7.14574H18.3209L19.4378 3.43321C19.5397 3.09428 19.4811 2.73601 19.2768 2.45041C19.0725 2.1648 18.7579 2.00101 18.4135 2.00101H15.4521C15.1439 2.00101 14.894 2.25845 14.894 2.57619C14.894 2.89392 15.1439 3.15136 15.4521 3.15136H18.3539L17.1522 7.14581H14.851L13.2065 2.38321C13.1032 2.08393 12.7838 1.92794 12.4936 2.0341C12.2031 2.1406 12.0515 2.46962 12.1548 2.76889L13.6661 7.14567H11.0276C10.7193 7.14567 10.4694 7.40311 10.4694 7.72085V8.33437C10.4694 9.4973 11.3875 10.4435 12.516 10.4435H15.4523V11.2132C14.5755 11.4776 13.9329 12.3134 13.9329 13.3014C13.9329 13.4616 13.9502 13.6176 13.9823 13.768C11.7657 13.4457 9.83825 13.2893 8.2484 14.8052C7.8157 15.2179 6.79442 16.3569 6.6573 18.0163C6.64801 18.1287 6.45425 20.7839 8.54001 22.2242C9.37079 22.7978 10.2323 22.9569 10.9321 22.9569C11.2115 22.9569 11.4649 22.9316 11.6804 22.8971C11.8423 23.3772 12.168 23.7787 12.5883 24.0306C10.5238 25.2119 9.12322 27.4819 9.12322 30.083C9.12322 31.3705 9.47122 32.621 10.1164 33.7031H8.54618C7.10519 33.7031 5.93286 34.9113 5.93286 36.3962V36.4257C5.93286 36.7434 6.18274 37.0009 6.491 37.0009H25.5739C25.8821 37.0009 26.132 36.7434 26.132 36.4257V36.3962C26.132 34.9112 24.9598 33.7031 23.5187 33.7031H11.4792C10.6782 32.6801 10.2395 31.4046 10.2395 30.083C10.2395 26.9029 12.7501 24.3156 15.8361 24.3156C18.922 24.3156 21.4327 26.9029 21.4327 30.083C21.4327 30.6886 21.3423 31.2849 21.1637 31.8551C21.0691 32.1574 21.2302 32.4816 21.5236 32.579C21.8171 32.6766 22.1315 32.5105 22.2262 32.2081C22.4404 31.5236 22.549 30.8085 22.549 30.083C22.549 27.5598 21.2312 25.3483 19.2679 24.1397C19.9909 23.814 20.4977 23.0703 20.4977 22.2065C20.4977 21.2573 19.8859 20.4528 19.0475 20.1891C18.9047 19.2402 18.3485 18.4307 17.5754 17.9616C17.9147 17.5753 18.1216 17.0635 18.1216 16.5028C18.1216 16.0824 18.005 15.6896 17.8038 15.3565C19.3626 15.4088 21.0816 15.2593 22.9432 14.6229C24.1011 14.227 26.5103 13.4032 28.2026 11.0444C29.9754 8.57343 30.057 5.70595 29.9478 4.21674ZM11.2134 34.8533C11.2158 34.8533 11.2181 34.8537 11.2205 34.8537C11.2232 34.8537 11.226 34.8534 11.2288 34.8533H23.5188C24.1579 34.8533 24.7048 35.2681 24.9191 35.8503H7.14592C7.36025 35.2682 7.90711 34.8533 8.54618 34.8533H11.2134ZM12.516 9.29311C12.0031 9.29311 11.5857 8.86299 11.5857 8.33444V8.29609H14.4571H17.5636H20.4791V8.33444C20.4791 8.86306 20.0618 9.29311 19.5488 9.29311H12.516ZM15.9053 12.287C15.9394 12.2937 15.9745 12.2976 16.0104 12.2976C16.0557 12.2976 16.0994 12.2914 16.1416 12.281C16.6447 12.3315 17.0393 12.7697 17.0393 13.3014C17.0393 13.64 16.8784 13.94 16.6321 14.1268C16.1706 14.0811 15.7212 14.0225 15.2827 13.9599C15.1373 13.7817 15.0492 13.552 15.0492 13.3014C15.0492 12.7846 15.4224 12.357 15.9053 12.287ZM16.0104 15.4771C16.5591 15.4771 17.0055 15.9371 17.0055 16.5026C17.0055 17.068 16.5591 17.528 16.0104 17.528C15.4618 17.528 15.0154 17.068 15.0154 16.5026C15.0154 15.9372 15.4618 15.4771 16.0104 15.4771ZM11.6182 21.7399C11.0831 21.8403 10.0805 21.903 9.16143 21.2683C7.61623 20.2013 7.76788 18.1344 7.7696 18.1136C7.87348 16.855 8.6693 15.9709 9.00654 15.6494C10.3351 14.3825 12.028 14.6364 14.371 14.9877C14.4076 14.9932 14.4447 14.9987 14.4816 15.0042C14.121 15.3947 13.8991 15.9223 13.8991 16.5026C13.8991 17.0717 14.1124 17.5902 14.4607 17.9783C13.7024 18.4499 13.1583 19.2515 13.0173 20.1888C12.3205 20.408 11.7808 21.0009 11.6182 21.7399ZM18.4511 21.2477C18.9641 21.2477 19.3814 21.6778 19.3814 22.2064C19.3814 22.735 18.9641 23.1651 18.4511 23.1651H13.6137C13.1007 23.1651 12.6834 22.735 12.6834 22.2064C12.6834 21.6778 13.1007 21.2477 13.6137 21.2477H18.4511ZM17.885 20.0973H14.1799C14.42 19.2773 15.1595 18.6784 16.0324 18.6784C16.9053 18.6784 17.6448 19.2774 17.885 20.0973Z" fill="#284B63"/>
</g>
<defs>
<clipPath id="clip0">
<rect width="33.9633" height="35" fill="white" transform="translate(0.974609 2)"/>
</clipPath>
</defs>
</svg>
