<svg width="36" height="38" viewBox="0 0 36 38" fill="none" xmlns="http://www.w3.org/2000/svg">
<g clip-path="url(#clip0)">
<path d="M17.5794 9.4321C13.2683 9.4321 9.76099 13.0972 9.76099 17.6023C9.76099 22.1073 13.2683 25.7725 17.5794 25.7725C21.8904 25.7725 25.3977 22.1073 25.3977 17.6023C25.3977 13.0972 21.8904 9.4321 17.5794 9.4321ZM17.5794 24.6831C13.8432 24.6831 10.8034 21.5065 10.8034 17.6023C10.8034 13.698 13.8432 10.5215 17.5794 10.5215C21.3155 10.5215 24.3553 13.698 24.3553 17.6023C24.3553 21.5065 21.3155 24.6831 17.5794 24.6831Z" fill="#284B63"/>
<path d="M17.5792 5.61934C11.2563 5.61934 6.1123 10.9948 6.1123 17.6023C6.1123 24.2098 11.2563 29.5852 17.5792 29.5852C23.9022 29.5852 29.0462 24.2098 29.0462 17.6023C29.0462 10.9948 23.9022 5.61934 17.5792 5.61934ZM17.5792 28.4959C11.8312 28.4959 7.15475 23.609 7.15475 17.6023C7.15475 11.5956 11.8312 6.7087 17.5792 6.7087C23.3273 6.7087 28.0037 11.5956 28.0037 17.6023C28.0037 23.609 23.3273 28.4959 17.5792 28.4959Z" fill="#284B63"/>
<path d="M33.2161 0.172989C32.3639 0.172989 31.6306 0.837497 31.5107 1.71879L29.5733 15.8913C29.5503 16.0607 29.6046 16.2318 29.7197 16.3527L30.61 17.2868V33.3979C30.61 34.2988 31.3116 35.0319 32.1737 35.0319C33.0358 35.0319 33.7373 34.2988 33.7373 33.3979V0.717123C33.7373 0.41646 33.5038 0.172989 33.2161 0.172989ZM32.6949 33.3984C32.6949 33.6985 32.4609 33.9431 32.1737 33.9431C31.8865 33.9431 31.6524 33.6985 31.6524 33.3984V17.0618C31.6524 16.9175 31.5977 16.7797 31.5002 16.6773L30.6413 15.7759L32.5417 1.87239C32.5604 1.73785 32.6146 1.61584 32.6944 1.51726V33.3984H32.6949Z" fill="#284B63"/>
<path d="M7.67605 8.21363V0.71721C7.67605 0.444326 7.48216 0.212837 7.22311 0.177433C6.96302 0.140395 6.71961 0.311424 6.65133 0.575593L5.4155 5.37367L4.53932 0.614265C4.49241 0.357722 4.27715 0.172531 4.02748 0.172531C3.77781 0.172531 3.56255 0.357722 3.51564 0.614265L2.63946 5.37367L1.40311 0.575049C1.33483 0.310879 1.08986 0.140395 0.831851 0.176888C0.572802 0.212837 0.378906 0.443781 0.378906 0.71721V8.21417C0.378906 9.17335 0.888664 10.035 1.70959 10.4642C2.17453 10.7066 2.46381 11.1957 2.46381 11.7393V33.3397C2.46381 34.1654 3.02464 34.8833 3.76843 35.0097C3.85391 35.0244 3.93991 35.0314 4.02487 35.0314C4.39546 35.0314 4.75563 34.8958 5.04022 34.6425C5.39048 34.3315 5.59116 33.8778 5.59116 33.3979V11.7393C5.59116 11.1957 5.88043 10.7066 6.34537 10.4637C7.1663 10.0345 7.67605 9.17281 7.67605 8.21363ZM5.87939 9.48927C5.05846 9.91847 4.54871 10.7802 4.54871 11.7393V33.3979C4.54871 33.5581 4.48199 33.7095 4.36471 33.813C4.24587 33.9181 4.09368 33.9606 3.93574 33.935C3.69494 33.8936 3.50626 33.6322 3.50626 33.3397V11.7393C3.50626 10.7802 2.9965 9.91847 2.17557 9.48927C1.71064 9.24634 1.42136 8.75722 1.42136 8.21363V4.83553L2.22091 7.93965C2.28398 8.18476 2.4956 8.34489 2.74318 8.34272C2.98555 8.33346 3.18987 8.15044 3.23574 7.90098L4.02748 3.60128L4.8187 7.90098C4.86457 8.15044 5.06889 8.33291 5.31126 8.34272C5.55311 8.34653 5.77046 8.18476 5.83352 7.93965L6.6336 4.83553V8.21417C6.6336 8.75722 6.34433 9.24634 5.87939 9.48927Z" fill="#284B63"/>
<path d="M17.5793 20.3257H16.5369V21.415H17.5793V20.3257Z" fill="#284B63"/>
<path d="M19.6643 20.3257H18.6218V21.415H19.6643V20.3257Z" fill="#284B63"/>
<path d="M21.7492 20.3257H20.7068V21.415H21.7492V20.3257Z" fill="#284B63"/>
</g>
<defs>
<clipPath id="clip0">
<rect width="33.3584" height="34.86" fill="white" transform="translate(0.378906 0.171997)"/>
</clipPath>
</defs>
</svg>
